<svg id="e0aFBenmkXP1" xmlns="http://www.w3.org/2000/svg" xmlns:xlink="http://www.w3.org/1999/xlink" viewBox="0 0 60 60" shape-rendering="geometricPrecision" text-rendering="geometricPrecision" project-id="175665f3bf404a5f935ed6813e8c89cb" export-id="429fe990c90748dab3acd1c5bcc3b0aa" cached="false"><path d="M35.5,50.06L38.17,26.5h26v7.67h-18.45l-1.15,10c2.15017-1.159803,4.557002-1.761511,7-1.75q6.62,0,10.38,4.11t3.73,11.47c.041348,2.78194-.608044,5.530691-1.89,8-1.227493,2.331617-3.116584,4.24854-5.43,5.51-2.563383,1.368486-5.434758,2.057066-8.34,2-2.69447.024302-5.360018-.556651-7.8-1.7-2.301246-1.052191-4.269445-2.715994-5.69-4.81-1.391256-2.073817-2.158271-4.503275-2.21-7h9.11c.078578,1.700695.792258,3.310043,2,4.51c1.260195,1.099461,2.900185,1.662871,4.57,1.57c1.875682.097662,3.677643-.741504,4.81-2.24c1.23479-1.8784,1.827731-4.106315,1.69-6.35.149274-2.190365-.544804-4.354887-1.94-6.05-1.457562-1.479557-3.487811-2.250029-5.56-2.11-1.922485-.085181-3.811255.525474-5.32,1.72l-.89.83Zm0,0L38.17,26.5h26v7.67h-18.45l-1.15,10c2.15017-1.159803,4.557002-1.761511,7-1.75q6.62,0,10.38,4.11t3.73,11.47c.041348,2.78194-.608044,5.530691-1.89,8-1.227493,2.331617-3.116584,4.24854-5.43,5.51-2.563383,1.368486-5.434758,2.057066-8.34,2-2.69447.024302-5.360018-.556651-7.8-1.7-2.301246-1.052191-4.269445-2.715994-5.69-4.81-1.391256-2.073817-2.158271-4.503275-2.21-7h9.11c.078578,1.700695.792258,3.310043,2,4.51c1.260195,1.099461,2.900185,1.662871,4.57,1.57c1.875682.097662,3.677643-.741504,4.81-2.24c1.23479-1.8784,1.827731-4.106315,1.69-6.35.149274-2.190365-.544804-4.354887-1.94-6.05-1.457562-1.479557-3.487811-2.250029-5.56-2.11-1.922485-.085181-3.811255.525474-5.32,1.72l-.89.83Z" transform="matrix(1.20434 0 0 1.2085-31.05841-30.433018)" fill="#f8903f"/></svg>
